# xmcd
#
# Track frame offsets: 
#        150
#        14271
#        32361
#        47389
#        67252
#        84453
#        102257
#        109513
#        126184
#        146291
#        160502
#        179079
#        198025
#        210191
#
# Disc length: 3449 seconds
#
# Revision: 0
# Processed by: cddbd v1.5.1PL2 Copyright (c) Steve Scherf et al.
# Submitted via: ExactAudioCopy v0.95a5
#
DISCID=aa0d770e
DTITLE=True Blues - Past Due
DYEAR=2005
DGENRE=Blues
TTITLE0=I Wanna Play The Blues
TTITLE1=Bluesboy
TTITLE2=Too Long Gone
TTITLE3=That's Why I'll Never Get The Blues
TTITLE4=Is It True
TTITLE5=Crossroads
TTITLE6=Up and Gone
TTITLE7=Nothin' You Can Do About Love
TTITLE8=If I Had A Little Money
TTITLE9=Walkin' Shoes
TTITLE10=Lazy Summer Day
TTITLE11=Shadowed
TTITLE12=Daddy's Girl
TTITLE13=Handyman (Live)
EXTD=
EXTT0=
EXTT1=
EXTT2=
EXTT3=
EXTT4=
EXTT5=
EXTT6=
EXTT7=
EXTT8=
EXTT9=
EXTT10=
EXTT11=
EXTT12=
EXTT13=
PLAYORDER=
